<?xml version="1.0" encoding="utf-8"?>
<!-- Generator: Adobe Illustrator 24.0.3, SVG Export Plug-In . SVG Version: 6.00 Build 0)  -->
<svg version="1.1" id="Layer_1" xmlns="http://www.w3.org/2000/svg" xmlns:xlink="http://www.w3.org/1999/xlink" x="0px" y="0px"
	 viewBox="0 0 631.2 602" style="enable-background:new 0 0 631.2 602;" xml:space="preserve">
<style type="text/css">
	.st0{opacity:0.5;fill:#F4C027;enable-background:new    ;}
	.st1{fill:url(#SVGID_1_);}
	.st2{fill:#FFFFFF;}
	.st3{opacity:0.5;fill:#FF902F;enable-background:new    ;}
	.st4{fill:url(#SVGID_2_);}
	.st5{opacity:0.5;fill:#20CEAC;enable-background:new    ;}
	.st6{fill:url(#SVGID_3_);}
	.st7{opacity:0.5;fill:#2E9CEF;enable-background:new    ;}
	.st8{fill:url(#SVGID_4_);}
	.st9{opacity:0.5;fill:#A36EB8;enable-background:new    ;}
	.st10{fill:url(#SVGID_5_);}
	.st11{fill:#383838;}
	.st12{fill:url(#SVGID_6_);}
	.st13{fill:#F0F4F7;}
	.st14{fill:#00A7FC;}
	.st15{fill:none;stroke:#00A7FC;stroke-width:1.8598;stroke-miterlimit:10;}
	.st16{fill:#727272;}
	.st17{fill:none;stroke:#EDEDED;stroke-width:12.3986;stroke-linecap:round;stroke-miterlimit:10;}
	.st18{fill:none;stroke:#919191;stroke-width:12.3986;stroke-linecap:round;stroke-miterlimit:10;}
	.st19{fill:#A6CEFF;}
	.st20{fill:#DCB593;}
	.st21{fill:#4B84C4;}
	.st22{fill:url(#SVGID_7_);}
	.st23{fill:#ECCEB1;}
	.st24{fill:url(#SVGID_8_);}
	.st25{fill:#C79976;}
	.st26{fill:#F1C7AA;}
	.st27{clip-path:url(#SVGID_10_);}
	.st28{fill:#00A4E0;}
	.st29{fill:#F9CC2A;}
	.st30{fill:#3C4D84;}
</style>
<title>church-center-overview</title>
<g id="Layer_1_1_">
	<rect x="191.5" y="154.2" class="st0" width="141.8" height="83.6"/>
	
		<linearGradient id="SVGID_1_" gradientUnits="userSpaceOnUse" x1="158.1256" y1="441.2306" x2="224.9" y2="374.4562" gradientTransform="matrix(1 0 0 -1 0 604)">
		<stop  offset="0" style="stop-color:#F5C426"/>
		<stop  offset="1" style="stop-color:#F2B327"/>
	</linearGradient>
	<path class="st1" d="M191.5,154.4c-33.4,0-41.7,8.4-41.7,41.7s8.4,41.8,41.7,41.8s41.7-8.4,41.7-41.7S224.9,154.4,191.5,154.4z"/>
	<path class="st2" d="M192.8,211.5c-0.7,0.5-1.8,0.5-2.5,0c-5.3-3.7-25.2-18.9-13.8-28.8c3.9-3.4,9.9-2.8,13.6,0.9l1.5,1.5l1.5-1.5
		c3.7-3.7,9.6-4.2,13.6-0.9C218,192.5,198.1,207.7,192.8,211.5z"/>
	<rect x="93.9" y="249.6" class="st3" width="237.4" height="83.6"/>
	
		<linearGradient id="SVGID_2_" gradientUnits="userSpaceOnUse" x1="60.5056" y1="345.8643" x2="127.2725" y2="279.0974" gradientTransform="matrix(1 0 0 -1 0 604)">
		<stop  offset="0" style="stop-color:#FF962D"/>
		<stop  offset="1" style="stop-color:#FC7638"/>
	</linearGradient>
	<path class="st4" d="M93.9,249.8c-33.4,0-41.7,8.3-41.7,41.7s8.4,41.7,41.7,41.7s41.7-8.4,41.7-41.7S127.3,249.8,93.9,249.8z"/>
	<path class="st2" d="M99.5,281.8H88.3c-0.8,1.9-2.3,3.4-4.2,4.2v11.1c1.9,0.8,3.4,2.3,4.2,4.2h11.1c0.8-1.9,2.3-3.4,4.2-4.2V286
		C101.7,285.2,100.3,283.7,99.5,281.8z M114.6,304.3c0,4.3-3.5,7.9-7.9,7.9c-3.1,0-6-1.9-7.2-4.8H88.3c-1.7,4-6.3,5.9-10.3,4.2
		c-4-1.7-5.9-6.3-4.2-10.3c0.8-1.9,2.3-3.4,4.1-4.2V286c-4-1.7-5.9-6.3-4.2-10.3c1.7-4,6.3-5.9,10.3-4.2c1.9,0.8,3.4,2.3,4.2,4.2
		h11.1c1.7-4,6.3-5.9,10.3-4.2c4,1.7,5.9,6.3,4.2,10.3c-0.8,1.9-2.3,3.4-4.2,4.2v11.1C112.7,298.3,114.5,301.1,114.6,304.3z"/>
	<rect x="132.4" y="440.8" class="st5" width="198.9" height="83.6"/>
	
		<linearGradient id="SVGID_3_" gradientUnits="userSpaceOnUse" x1="98.9619" y1="154.7556" x2="165.735" y2="87.9825" gradientTransform="matrix(1 0 0 -1 0 604)">
		<stop  offset="0" style="stop-color:#43B39C"/>
		<stop  offset="1" style="stop-color:#46948D"/>
	</linearGradient>
	<path class="st6" d="M132.4,440.9c-33.4,0-41.7,8.4-41.7,41.7s8.3,41.7,41.7,41.7s41.7-8.3,41.7-41.7S165.7,440.9,132.4,440.9z"/>
	<rect x="41.9" y="345.7" class="st7" width="294.9" height="83.6"/>
	
		<linearGradient id="SVGID_4_" gradientUnits="userSpaceOnUse" x1="8.5519" y1="249.8643" x2="75.3225" y2="183.0937" gradientTransform="matrix(1 0 0 -1 0 604)">
		<stop  offset="0" style="stop-color:#32A0F0"/>
		<stop  offset="0.99" style="stop-color:#3F75E5"/>
	</linearGradient>
	<path class="st8" d="M41.9,345.8c-33.4,0-41.7,8.3-41.7,41.7s8.3,41.7,41.7,41.7s41.7-8.4,41.7-41.7S75.3,345.8,41.9,345.8z"/>
	<path class="st2" d="M35.5,370.5c4.4,0,7.9,3.5,7.9,7.9c0,4.4-3.5,7.9-7.9,7.9s-7.9-3.5-7.9-7.9S31.2,370.5,35.5,370.5L35.5,370.5z
		"/>
	<path class="st2" d="M45.3,403.9H25.7c-1.2,0-2.2-1-2.2-2.2v-5c0-4,3.2-7.2,7.2-7.2h9.6c4,0,7.2,3.2,7.2,7.2v5
		C47.5,402.9,46.5,403.9,45.3,403.9z"/>
	<circle class="st2" cx="53.7" cy="381.1" r="5.9"/>
	<path class="st2" d="M59.8,399.1h-7.6c-1.2,0-2.2-1-2.2-2.2v-0.2c0-1.3-0.3-2.6-0.8-3.8c-0.1-0.2-0.1-0.4-0.2-0.5
		c-0.1-0.2-0.1-0.3-0.2-0.4c-0.1-0.2-0.2-0.4-0.4-0.6c0.8-1.2,2.1-1.8,3.6-1.9h5.8c2.4,0,4.3,1.9,4.4,4.3v3.1
		C62,398.1,61,399.1,59.8,399.1C59.8,399.1,59.8,399.1,59.8,399.1z"/>
	<rect x="108.7" y="58.4" class="st9" width="237.4" height="83.6"/>
	
		<linearGradient id="SVGID_5_" gradientUnits="userSpaceOnUse" x1="75.2566" y1="537.2191" x2="142.0322" y2="470.4434" gradientTransform="matrix(1 0 0 -1 0 604)">
		<stop  offset="0" style="stop-color:#A76EBE"/>
		<stop  offset="1" style="stop-color:#875E96"/>
	</linearGradient>
	<path class="st10" d="M108.7,58.4c-33.4,0-41.7,8.3-41.7,41.7s8.3,41.7,41.7,41.7s41.7-8.4,41.7-41.7S142,58.4,108.7,58.4z"/>
	<path class="st2" d="M128.1,93l-21.6,21.6c-1.9,1.9-5,1.9-6.9,0c0,0,0,0,0,0l-10.4-10.4c-1.9-1.9-1.8-5,0.1-6.9
		c1.9-1.8,4.9-1.8,6.8,0l6.9,6.9l18.2-18.2c2-1.8,5.1-1.7,6.9,0.3C129.8,88.2,129.8,91.1,128.1,93L128.1,93z"/>
	<path class="st11" d="M324.3,0h242.2c35.7,0,64.6,28.9,64.6,64.6v472.8c0,35.7-28.9,64.6-64.6,64.6H324.3
		c-35.7,0-64.6-28.9-64.6-64.6V64.6C259.7,28.9,288.6,0,324.3,0z"/>
	<path class="st2" d="M566.6,27.3h-42.7c-4.3,0-8.3,2.5-10.2,6.3l-7.3,15c-3,6.2-9.3,10.1-16.2,10.1h-89.5
		c-6.9,0-13.2-3.9-16.2-10.1l-7.3-15c-1.9-3.9-5.9-6.3-10.2-6.3h-42.7C303.7,27.3,287,44,287,64.6c0,0,0,0,0,0v472.8
		c0,20.6,16.7,37.3,37.3,37.3c0,0,0,0,0,0h242.2c20.6,0,37.3-16.7,37.3-37.3V64.6C603.9,44,587.2,27.3,566.6,27.3z"/>
	
		<linearGradient id="SVGID_6_" gradientUnits="userSpaceOnUse" x1="287" y1="526.205" x2="603.86" y2="526.205" gradientTransform="matrix(1 0 0 -1 0 604)">
		<stop  offset="0" style="stop-color:#00A7FC"/>
		<stop  offset="1" style="stop-color:#40BE60"/>
	</linearGradient>
	<path class="st12" d="M603.9,128.3V64.6c0-20.6-16.7-37.3-37.3-37.3h-42.7c-4.3,0-8.3,2.5-10.2,6.3l-7.3,15
		c-3,6.2-9.3,10.1-16.2,10.1h-89.5c-6.9,0-13.2-3.9-16.2-10.1l-7.3-15c-1.9-3.9-5.9-6.3-10.2-6.3h-42.7C303.7,27.3,287,44,287,64.6
		c0,0,0,0,0,0v63.7H603.9z"/>
	<path class="st2" d="M563.8,81.1c-8.4,0-15.2,6.8-15.2,15.2c0,8.4,6.8,15.2,15.2,15.2c8.4,0,15.2-6.8,15.2-15.2c0,0,0,0,0,0
		C579,88,572.2,81.1,563.8,81.1z M555.8,107.1v-2.9c0-1.6,2.9-2.8,5.6-3.3c0.7-0.1,1.3-0.8,1.3-1.5v-0.5c0-0.5-0.3-1-0.7-1.3
		l-1.1-0.7c-0.5-0.3-0.7-0.8-0.8-1.4v-3.3c0.1-2.1,1.9-3.7,4-3.6c1.9,0.1,3.5,1.6,3.6,3.6v3.3c0,0.6-0.3,1.1-0.8,1.4l-1.3,0.8
		c-0.4,0.3-0.7,0.8-0.7,1.3v0.4c0,0.8,0.5,1.4,1.3,1.5c2.7,0.5,5.6,1.8,5.6,3.3v3C567,110.7,560.5,110.6,555.8,107.1L555.8,107.1z
		 M573.5,105.7v-1.5c0-0.9-0.5-3.8-6.8-5v-0.1l1.2-0.8c1-0.6,1.5-1.7,1.5-2.9v-3.3c-0.1-3.1-2.7-5.5-5.8-5.3
		c-2.9,0.1-5.2,2.4-5.3,5.3v3.3c0,1.2,0.6,2.2,1.5,2.9l1,0.7v0.2c-6.3,1.2-6.8,4.2-6.8,5v1.3c-5-5.4-4.7-13.9,0.7-19
		c5.4-5,13.9-4.7,19,0.7C578.5,92.4,578.5,100.5,573.5,105.7L573.5,105.7z"/>
	<path class="st13" d="M287,489.7v47.6c0,20.6,16.7,37.3,37.3,37.3c0,0,0,0,0,0h242.2c20.6,0,37.3-16.7,37.3-37.3v-47.6H287z"/>
	<path class="st14" d="M421.3,518.1h-31.5c-1.5,0-2.7,1.2-2.7,2.7v19.9c0,1.5,1.2,2.7,2.7,2.7h31.5c1.5,0,2.7-1.2,2.7-2.7v-19.9
		C424,519.3,422.8,518.1,421.3,518.1z M422.2,520.8v4.3c-2.7-0.4-4.8-2.5-5.2-5.2h4.3C421.8,519.9,422.2,520.3,422.2,520.8z
		 M422.2,526.9v7.7c-3.7,0.4-6.6,3.3-7,7h-19.3c-0.4-3.7-3.3-6.6-7-7v-7.7c3.7-0.4,6.6-3.3,7-7h19.3
		C415.6,523.6,418.5,526.5,422.2,526.9z M389.8,519.9h4.3c-0.4,2.7-2.5,4.8-5.2,5.2v-4.3C388.8,520.3,389.2,519.9,389.8,519.9
		C389.8,519.9,389.8,519.9,389.8,519.9L389.8,519.9z M388.8,540.7v-4.3c2.7,0.4,4.8,2.5,5.2,5.2h-4.3
		C389.2,541.6,388.8,541.2,388.8,540.7C388.8,540.7,388.8,540.7,388.8,540.7L388.8,540.7z M421.3,541.7H417c0.4-2.7,2.5-4.8,5.2-5.2
		v4.3C422.2,541.2,421.8,541.6,421.3,541.7C421.3,541.6,421.3,541.6,421.3,541.7L421.3,541.7z"/>
	<path class="st14" d="M405.7,526.4l-0.2,0.2l-0.1-0.2c-1.6-1.6-4.1-1.6-5.7,0s-1.6,4.1,0,5.7l4.5,4.6c0.7,0.7,1.9,0.7,2.6,0
		c0,0,0,0,0,0l4.6-4.6c1.6-1.6,1.6-4.1,0-5.7S407.2,524.8,405.7,526.4L405.7,526.4z M410.1,530.8l-4.5,4.6 M405.5,535.4l-4.6-4.6
		c-0.9-0.8-1-2.3-0.1-3.2c0.8-0.9,2.3-1,3.2-0.1c0,0,0.1,0.1,0.1,0.1l1.4,1.4l1.4-1.4c0.9-0.9,2.3-0.9,3.2,0c0.9,0.9,0.9,2.3,0,3.2
		L405.5,535.4z"/>
	<path class="st14" d="M563.5,519.1h-2V518c0-1.2-1-2.1-2.1-2.1s-2.1,1-2.1,2.1v1.1h-11.6V518c-0.1-1.2-1.1-2.1-2.3-2
		c-1.1,0.1-1.9,0.9-2,2v1.1h-2c-1.5,0-2.7,1.2-2.7,2.7v21c0,1.5,1.2,2.7,2.7,2.7h24.1c1.5,0,2.7-1.2,2.7-2.7v-21
		C566.2,520.3,565,519.1,563.5,519.1z M559,518c0-0.2,0.2-0.3,0.3-0.3c0.2,0,0.3,0.1,0.3,0.3v4c0,0.2-0.2,0.3-0.3,0.3h0
		c-0.2,0-0.3-0.2-0.3-0.3v0V518z M543.1,518c0-0.2,0.2-0.3,0.4-0.3c0.1,0,0.3,0.1,0.3,0.3v4c0,0.2-0.1,0.4-0.3,0.4s-0.4-0.1-0.4-0.3
		c0,0,0-0.1,0-0.1V518z M539.3,520.9h2v1.1c-0.1,1.2,0.8,2.2,2,2.3c1.2,0.1,2.2-0.8,2.3-2c0-0.1,0-0.2,0-0.3v-1.1h11.6v1.1
		c0,1.2,1,2.1,2.1,2.1s2.1-1,2.1-2.1v-1.1h2c0.5,0,0.9,0.4,0.9,0.9v4.8h-26v-4.8C538.4,521.3,538.9,520.9,539.3,520.9L539.3,520.9z
		 M563.4,543.8h-24.1c-0.5,0-0.9-0.4-0.9-0.9v-14.4h26v14.4C564.4,543.4,564,543.8,563.4,543.8C563.5,543.8,563.5,543.8,563.4,543.8
		L563.4,543.8z"/>
	<path class="st14" d="M544.2,532.7c-1.6,0-2.9,1.3-2.9,2.9s1.3,2.9,2.9,2.9c1.6,0,2.9-1.3,2.9-2.9v0
		C547.2,534,545.9,532.7,544.2,532.7z M544.2,536.7c-0.6,0-1.1-0.5-1.1-1.1s0.5-1.1,1.1-1.1c0.6,0,1.1,0.5,1.1,1.1l0,0
		C545.4,536.2,544.9,536.7,544.2,536.7C544.3,536.7,544.3,536.7,544.2,536.7L544.2,536.7z"/>
	<path class="st14" d="M551.4,532.7c-1.6,0-2.9,1.3-2.9,2.9s1.3,2.9,2.9,2.9c1.6,0,2.9-1.3,2.9-2.9v0
		C554.3,534,553,532.7,551.4,532.7z M551.4,536.7c-0.6,0-1.1-0.5-1.1-1.1s0.5-1.1,1.1-1.1c0.6,0,1.1,0.5,1.1,1.1l0,0
		C552.5,536.2,552.1,536.7,551.4,536.7C551.4,536.7,551.4,536.7,551.4,536.7L551.4,536.7z"/>
	<path class="st14" d="M558.1,532.7c-1.6,0-2.9,1.3-2.9,2.9s1.3,2.9,2.9,2.9c1.6,0,2.9-1.3,2.9-2.9v0
		C561,534,559.7,532.7,558.1,532.7z M558.1,536.7c-0.6,0-1.1-0.5-1.1-1.1s0.5-1.1,1.1-1.1c0.6,0,1.1,0.5,1.1,1.1l0,0
		C559.3,536.2,558.8,536.7,558.1,536.7C558.2,536.7,558.1,536.7,558.1,536.7L558.1,536.7z"/>
	<path class="st14" d="M494.6,522.2c0-3.2-2.6-5.8-5.8-5.8c-1.1,0-2.2,0.3-3.1,0.9c-4.2-2.7-9.7-2.7-13.9,0c-2.8-1.7-6.3-0.8-8,2
		s-0.8,6.3,2,8c0,0.3,0,0.7,0,1c0,4.9,2.8,9.4,7.2,11.6c0,0.2,0,0.3,0,0.5c0,3.2,2.6,5.8,5.8,5.8s5.8-2.6,5.8-5.8c0-0.2,0-0.3,0-0.5
		c4.4-2.2,7.2-6.7,7.2-11.6c0-0.3,0-0.7,0-1C493.5,526.3,494.6,524.3,494.6,522.2z M468.6,518.2c2.2,0,4,1.8,4,4s-1.8,4-4,4
		s-4-1.8-4-4C464.6,520,466.4,518.2,468.6,518.2C468.6,518.2,468.6,518.2,468.6,518.2L468.6,518.2z M478.7,544.4c-2.2,0-4-1.8-4-4
		s1.8-4,4-4s4,1.8,4,4C482.7,542.6,480.9,544.4,478.7,544.4L478.7,544.4z M489.9,528.3c0,4.1-2.2,7.9-5.8,9.8
		c-1.3-3-4.7-4.3-7.6-3.1c-1.4,0.6-2.5,1.7-3.1,3.1c-3.6-2-5.8-5.7-5.8-9.8c0-0.1,0-0.2,0-0.3c3.1,0.6,6.2-1.4,6.8-4.6
		c0.3-1.7-0.1-3.5-1.2-4.8c3.4-2,7.7-2,11.1,0c-2,2.5-1.7,6.1,0.8,8.2c1.3,1.1,3.1,1.5,4.8,1.2C489.9,528.1,489.9,528.2,489.9,528.3
		L489.9,528.3z M488.8,526.3c-2.2,0-4-1.8-4-4s1.8-4,4-4s4,1.8,4,4C492.7,524.5,491,526.3,488.8,526.3L488.8,526.3z"/>
	<path class="st15" d="M332.4,518l-8.1,6.6c-1.8,1.5-2.9,3.7-2.8,6v12c0,1,0.8,1.7,1.7,1.7h6.1c1,0,1.7-0.8,1.7-1.7c0,0,0,0,0,0
		v-6.9c0-1.9,1.6-3.5,3.5-3.5c0,0,0,0,0,0l0,0c1.9,0,3.5,1.6,3.5,3.5v6.9c0,1,0.8,1.7,1.7,1.7h6.1c1,0,1.7-0.8,1.7-1.7c0,0,0,0,0,0
		v-12c0-2.3-1-4.5-2.8-6l-8.1-6.6C335.2,517,333.5,517,332.4,518z"/>
	<path class="st16" d="M344.9,281.5h45.9c5.5,0,9.9,4.4,9.9,9.9v0c0,5.5-4.4,9.9-9.9,9.9h-45.9c-5.5,0-9.9-4.4-9.9-9.9v0
		C335,285.9,339.5,281.5,344.9,281.5z"/>
	<line class="st17" x1="340" y1="326.1" x2="555.7" y2="326.1"/>
	<line class="st17" x1="340" y1="352.1" x2="555.7" y2="352.1"/>
	<line class="st17" x1="340" y1="378.2" x2="436.7" y2="378.2"/>
	<line class="st17" x1="340" y1="455" x2="436.7" y2="455"/>
	<line class="st18" x1="340" y1="429" x2="387.1" y2="429"/>
	<path class="st19" d="M347.3,152.5h201.1c6.8,0,12.3,5.5,12.3,12.3v68.5c0,6.8-5.5,12.3-12.3,12.3H347.3c-6.8,0-12.3-5.5-12.3-12.3
		v-68.5C335,158,340.5,152.5,347.3,152.5z"/>
	<path class="st20" d="M467.2,203.6H429c-0.9,0-1.7-0.8-1.7-1.7c0,0,0,0,0,0v-42.1c0-0.4,0.1-0.8,0.4-1.1l18.9-11.9
		c0.6-0.7,1.7-0.8,2.4-0.3c0.1,0.1,0.2,0.2,0.3,0.3l19.4,11.9c0.2,0.3,0.4,0.7,0.4,1.1v42.1C468.9,202.8,468.2,203.6,467.2,203.6
		C467.2,203.6,467.2,203.6,467.2,203.6z"/>
	<path class="st21" d="M424.7,165.4c-1.9,0-3.4-1.5-3.4-3.4c0-1.1,0.5-2.2,1.4-2.8l21.3-15.1c1-1,2.3-1.6,3.8-1.6l0,0
		c1.4,0,2.8,0.5,3.8,1.5l21.8,15.1c1.5,1.1,1.9,3.2,0.8,4.7c-1.1,1.5-3.1,1.9-4.6,0.8l-21.7-15l-21.2,15
		C426.1,165.2,425.4,165.4,424.7,165.4z"/>
	<path class="st20" d="M498.5,211.8l-50.1-30c-0.4-0.2-0.8-0.2-1.2,0l-50.1,30c-0.4,0.2-0.6,0.6-0.5,1v31.8c0,0.6,0.5,1.1,1.1,1.1
		h100.2c0.6,0,1.1-0.5,1.1-1.1v-31.9C499.1,212.3,498.9,211.9,498.5,211.8z"/>
	
		<linearGradient id="SVGID_7_" gradientUnits="userSpaceOnUse" x1="447.83" y1="421.03" x2="447.83" y2="395.16" gradientTransform="matrix(1 0 0 -1 0 604)">
		<stop  offset="0" style="stop-color:#CD966F"/>
		<stop  offset="1" style="stop-color:#CD966F;stop-opacity:0.1"/>
	</linearGradient>
	<polygon class="st22" points="447.8,183.2 396.6,213.9 396.6,219.6 447.8,189 499.1,219.6 499.1,213.9 	"/>
	<path class="st21" d="M505.3,216.9c-0.6,0-1.2-0.2-1.8-0.5l-55.7-33.3l-55.7,33.4c-1.6,1-3.7,0.4-4.7-1.2c-1-1.6-0.4-3.7,1.2-4.7
		l56.8-34c1.5-0.9,3.3-0.9,4.8,0l56.8,34c1.6,1,2.1,3,1.2,4.7C507.6,216.3,506.5,216.9,505.3,216.9L505.3,216.9z"/>
	<path class="st23" d="M471.7,218.8l-22.8-13.4c-0.4-0.2-0.8-0.2-1.1,0L424,218.8c-0.4,0.2-0.6,0.6-0.6,1v24.8
		c0,0.6,0.5,1.1,1.1,1.1h46.5c0.6,0,1.1-0.5,1.1-1.1c0,0,0,0,0,0v-24.8C472.2,219.3,472,219,471.7,218.8z"/>
	
		<linearGradient id="SVGID_8_" gradientUnits="userSpaceOnUse" x1="423.45" y1="388.11" x2="472.21" y2="388.11" gradientTransform="matrix(1 0 0 -1 0 604)">
		<stop  offset="0" style="stop-color:#CD966F"/>
		<stop  offset="1" style="stop-color:#CD966F;stop-opacity:0.1"/>
	</linearGradient>
	<polygon class="st24" points="448.4,206.6 423.5,220.7 423.5,225.2 448.4,211.1 472.2,225.1 472.2,220.6 	"/>
	<path class="st21" d="M418.7,223.6c-1.9,0-3.4-1.5-3.4-3.4c0-1.2,0.7-2.4,1.7-3l29-16.4c1.5-0.8,3.3-0.8,4.8,0.1l27.8,16.4
		c1.6,1,2.2,3,1.2,4.7s-3,2.2-4.7,1.2l-26.8-15.8l-28,15.9C419.9,223.4,419.3,223.6,418.7,223.6z"/>
	<path class="st25" d="M479.4,232.5h2.7c0.7,0,1.3,0.6,1.3,1.3v0.9c0,0.7-0.6,1.3-1.3,1.3h-2.7c-0.7,0-1.3-0.6-1.3-1.3v-0.9
		C478.1,233,478.7,232.5,479.4,232.5z"/>
	<path class="st25" d="M403.4,236.2h2.7c0.7,0,1.3,0.6,1.3,1.3v0.9c0,0.7-0.6,1.3-1.3,1.3h-2.7c-0.7,0-1.3-0.6-1.3-1.3v-0.9
		C402.2,236.8,402.7,236.2,403.4,236.2z"/>
	<path class="st26" d="M487.5,236.2h2.7c0.7,0,1.3,0.6,1.3,1.3v0.9c0,0.7-0.6,1.3-1.3,1.3h-2.7c-0.7,0-1.3-0.6-1.3-1.3v-0.9
		C486.2,236.8,486.7,236.2,487.5,236.2z"/>
	<path class="st26" d="M408.7,230.8h2.7c0.7,0,1.3,0.6,1.3,1.3v0.9c0,0.7-0.6,1.3-1.3,1.3h-2.7c-0.7,0-1.3-0.6-1.3-1.3V232
		C407.4,231.3,408,230.8,408.7,230.8z"/>
	<g>
		<defs>
			<path id="SVGID_9_" d="M442.9,158.6h9.7c0.9,0,1.7,0.8,1.7,1.7v9.8c0,0.9-0.8,1.7-1.7,1.7h-9.7c-0.9,0-1.7-0.8-1.7-1.7v-9.8
				C441.2,159.3,442,158.6,442.9,158.6z"/>
		</defs>
		<clipPath id="SVGID_10_">
			<use xlink:href="#SVGID_9_"  style="overflow:visible;"/>
		</clipPath>
		<g class="st27">
			<rect x="441.2" y="158.6" class="st28" width="13.1" height="13.1"/>
		</g>
	</g>
	<path class="st29" d="M451,166.7h-0.1v-2.3c-0.1-1.7-1.5-3-3.2-2.9c-1.6,0.1-2.8,1.3-2.9,2.9v2.3h-0.1c-0.6,0-1.1,0.5-1.1,1.1
		s0.5,1.1,1.1,1.1c0,0,0,0,0,0h6.3c0.6,0,1.1-0.5,1.1-1.1C452.1,167.2,451.6,166.7,451,166.7z"/>
	<path class="st30" d="M447.8,231L447.8,231c3.2,0,5.8,2.6,5.8,5.8l0,0v9l0,0H442l0,0v-9C442,233.6,444.6,231,447.8,231
		C447.8,231,447.8,231,447.8,231z"/>
	<path class="st30" d="M449.5,221.1h3.3c0.3,0,0.6-0.3,0.6-0.6c0-0.1,0-0.1,0-0.2c-0.6-1.7-2-3.1-3.7-3.7c-0.3-0.1-0.7,0.1-0.8,0.4
		c0,0.1,0,0.1,0,0.2v3.3C448.8,220.9,449.1,221.1,449.5,221.1C449.4,221.1,449.4,221.1,449.5,221.1z"/>
	<path class="st30" d="M446.6,220.5v-3.3c0-0.3-0.3-0.6-0.6-0.6c-0.1,0-0.1,0-0.2,0c-1.7,0.6-3.1,2-3.7,3.7c-0.1,0.3,0,0.6,0.4,0.8
		c0.1,0,0.1,0,0.2,0h3.3C446.3,221.1,446.6,220.9,446.6,220.5C446.6,220.6,446.6,220.6,446.6,220.5z"/>
	<path class="st30" d="M446,223.4h-3.3c-0.3,0-0.6,0.3-0.6,0.6c0,0.1,0,0.1,0,0.2c0.6,1.7,2,3.1,3.7,3.7c0.3,0.1,0.7-0.1,0.8-0.4
		c0-0.1,0-0.1,0-0.2V224C446.6,223.7,446.4,223.4,446,223.4C446,223.4,446,223.4,446,223.4z"/>
	<path class="st30" d="M448.9,224v3.3c0,0.3,0.3,0.6,0.6,0.6c0.1,0,0.1,0,0.2,0c1.7-0.6,3.1-2,3.7-3.7c0.1-0.3-0.1-0.7-0.4-0.8
		c-0.1,0-0.1,0-0.2,0h-3.3C449.1,223.4,448.9,223.7,448.9,224z"/>
	<path class="st2" d="M109.3,487.7c-0.8,0.8-0.8,2.2,0,3l3,3c0.3,0.3,0.8,0.3,1.1,0.1c3-1.8,6.8-0.8,8.6,2.2c1.2,2,1.2,4.5,0,6.4
		c-0.2,0.4-0.2,0.8,0.1,1.1l3,3c0.8,0.8,2.2,0.8,3,0l8.4-8.4c0.3-0.3,0.3-0.7,0-1l-17.8-17.8c-0.3-0.3-0.7-0.3-1,0c0,0,0,0,0,0
		L109.3,487.7z M156.1,475.5l-3-3c-0.3-0.3-0.8-0.3-1.1-0.1c-3,1.8-6.8,0.7-8.6-2.2c-1.1-2-1.1-4.4,0-6.3c0.2-0.4,0.2-0.8-0.1-1.1
		l-3-3c-0.8-0.8-2.2-0.8-3,0c0,0,0,0,0,0l-15.1,15.2c-0.3,0.3-0.3,0.7,0,1c0,0,0,0,0,0l17.8,17.8c0.3,0.3,0.7,0.3,1,0c0,0,0,0,0,0
		l15.2-15.2C157,477.7,157,476.3,156.1,475.5C156.1,475.5,156.1,475.5,156.1,475.5z"/>
</g>
</svg>
